<?xml version="1.0" encoding="UTF-8" standalone="no"?>
<!DOCTYPE svg PUBLIC "-//W3C//DTD SVG 1.1//EN"
 "http://www.w3.org/Graphics/SVG/1.1/DTD/svg11.dtd">
<!-- Generated by graphviz version 2.40.1 (20161225.0304)
 -->
<!-- Title: dependencies Pages: 1 -->
<svg width="504pt" height="355pt"
 viewBox="0.00 0.00 504.00 355.00" xmlns="http://www.w3.org/2000/svg" xmlns:xlink="http://www.w3.org/1999/xlink">
<g id="graph0" class="graph" transform="scale(1 1) rotate(0) translate(4 351)">
<title>dependencies</title>
<polygon fill="#ffffff" stroke="transparent" points="-4,4 -4,-351 500,-351 500,4 -4,4"/>
<text text-anchor="start" x="227.0091" y="-42.4" font-family="sans-serif" font-weight="bold" font-size="14.00" fill="#000000">Legend</text>
<polygon fill="#ffffb3" stroke="transparent" points="14,-10 14,-30 34,-30 34,-10 14,-10"/>
<text text-anchor="start" x="37.629" y="-15.4" font-family="sans-serif" font-size="14.00" fill="#000000"> &#160;Declarations</text>
<polygon fill="#8dd3c7" stroke="transparent" points="127,-10 127,-30 147,-30 147,-10 127,-10"/>
<text text-anchor="start" x="150.7251" y="-15.4" font-family="sans-serif" font-size="14.00" fill="#000000"> &#160;Module</text>
<polygon fill="#80b1d3" stroke="transparent" points="213,-10 213,-30 233,-30 233,-10 213,-10"/>
<text text-anchor="start" x="236.7812" y="-15.4" font-family="sans-serif" font-size="14.00" fill="#000000"> &#160;Bootstrap</text>
<polygon fill="#fdb462" stroke="transparent" points="310,-10 310,-30 330,-30 330,-10 310,-10"/>
<text text-anchor="start" x="333.6732" y="-15.4" font-family="sans-serif" font-size="14.00" fill="#000000"> &#160;Providers</text>
<polygon fill="#fb8072" stroke="transparent" points="406,-10 406,-30 426,-30 426,-10 406,-10"/>
<text text-anchor="start" x="429.7258" y="-15.4" font-family="sans-serif" font-size="14.00" fill="#000000"> &#160;Exports</text>
<g id="clust1" class="cluster">
<title>cluster_AgmDirectionModule</title>
<polygon fill="none" stroke="#000000" stroke-dasharray="1,5" points="96,-70 96,-271 252,-271 252,-70 96,-70"/>
</g>
<g id="clust2" class="cluster">
<title>cluster_AgmDirectionModule_declarations</title>
<polygon fill="none" stroke="#000000" points="118,-78 118,-130 230,-130 230,-78 118,-78"/>
</g>
<g id="clust5" class="cluster">
<title>cluster_AgmDirectionModule_exports</title>
<polygon fill="none" stroke="#000000" points="116,-211 116,-263 232,-263 232,-211 116,-211"/>
</g>
<g id="clust8" class="cluster">
<title>cluster_AppModule</title>
<polygon fill="none" stroke="#000000" stroke-dasharray="1,5" points="260,-138 260,-339 400,-339 400,-138 260,-138"/>
</g>
<g id="clust9" class="cluster">
<title>cluster_AppModule_declarations</title>
<polygon fill="none" stroke="#000000" points="268,-146 268,-198 390,-198 390,-146 268,-146"/>
</g>
<g id="clust13" class="cluster">
<title>cluster_AppModule_bootstrap</title>
<polygon fill="none" stroke="#000000" points="268,-279 268,-331 392,-331 392,-279 268,-279"/>
</g>
<!-- AgmDirection -->
<g id="node1" class="node">
<title>AgmDirection</title>
<polygon fill="#ffffb3" stroke="#000000" points="222.3655,-122 125.6345,-122 125.6345,-86 222.3655,-86 222.3655,-122"/>
<text text-anchor="middle" x="174" y="-99.8" font-family="Times,serif" font-size="14.00" fill="#000000">AgmDirection</text>
</g>
<!-- AgmDirectionModule -->
<g id="node2" class="node">
<title>AgmDirectionModule</title>
<polygon fill="#8dd3c7" stroke="#000000" points="244.4158,-190 241.4158,-194 220.4158,-194 217.4158,-190 103.5842,-190 103.5842,-154 244.4158,-154 244.4158,-190"/>
<text text-anchor="middle" x="174" y="-167.8" font-family="Times,serif" font-size="14.00" fill="#000000">AgmDirectionModule</text>
</g>
<!-- AgmDirection&#45;&gt;AgmDirectionModule -->
<g id="edge1" class="edge">
<title>AgmDirection&#45;&gt;AgmDirectionModule</title>
<path fill="none" stroke="#000000" d="M174,-122.2228C174,-122.2228 174,-143.7269 174,-143.7269"/>
<polygon fill="#000000" stroke="#000000" points="170.5001,-143.7269 174,-153.7269 177.5001,-143.727 170.5001,-143.7269"/>
</g>
<!-- AgmDirection  -->
<g id="node3" class="node">
<title>AgmDirection </title>
<polygon fill="#fb8072" stroke="#000000" points="224.3661,-255 123.6339,-255 123.6339,-219 224.3661,-219 224.3661,-255"/>
<text text-anchor="middle" x="174" y="-232.8" font-family="Times,serif" font-size="14.00" fill="#000000">AgmDirection </text>
</g>
<!-- AgmDirectionModule&#45;&gt;AgmDirection  -->
<g id="edge2" class="edge">
<title>AgmDirectionModule&#45;&gt;AgmDirection </title>
<path fill="none" stroke="#000000" stroke-dasharray="5,2" d="M174,-190.1061C174,-190.1061 174,-208.991 174,-208.991"/>
<polygon fill="#000000" stroke="#000000" points="170.5001,-208.9909 174,-218.991 177.5001,-208.991 170.5001,-208.9909"/>
</g>
<!-- AppModule -->
<g id="node5" class="node">
<title>AppModule</title>
<polygon fill="#8dd3c7" stroke="#000000" points="370.6571,-255 367.6571,-259 346.6571,-259 343.6571,-255 287.3429,-255 287.3429,-219 370.6571,-219 370.6571,-255"/>
<text text-anchor="middle" x="329" y="-232.8" font-family="Times,serif" font-size="14.00" fill="#000000">AppModule</text>
</g>
<!-- AgmDirectionModule&#45;&gt;AppModule -->
<g id="edge4" class="edge">
<title>AgmDirectionModule&#45;&gt;AppModule</title>
<path fill="none" stroke="#000000" d="M234.1952,-190.1061C234.1952,-209.3391 234.1952,-237 234.1952,-237 234.1952,-237 277.1412,-237 277.1412,-237"/>
<polygon fill="#000000" stroke="#000000" points="277.1413,-240.5001 287.1412,-237 277.1412,-233.5001 277.1413,-240.5001"/>
</g>
<!-- AppComponent -->
<g id="node4" class="node">
<title>AppComponent</title>
<polygon fill="#ffffb3" stroke="#000000" points="381.9399,-190 276.0601,-190 276.0601,-154 381.9399,-154 381.9399,-190"/>
<text text-anchor="middle" x="329" y="-167.8" font-family="Times,serif" font-size="14.00" fill="#000000">AppComponent</text>
</g>
<!-- AppComponent&#45;&gt;AppModule -->
<g id="edge3" class="edge">
<title>AppComponent&#45;&gt;AppModule</title>
<path fill="none" stroke="#000000" d="M329,-190.1061C329,-190.1061 329,-208.991 329,-208.991"/>
<polygon fill="#000000" stroke="#000000" points="325.5001,-208.9909 329,-218.991 332.5001,-208.991 325.5001,-208.9909"/>
</g>
<!-- AppComponent  -->
<g id="node6" class="node">
<title>AppComponent </title>
<polygon fill="#80b1d3" stroke="#000000" points="384.439,-323 275.561,-323 275.561,-287 384.439,-287 384.439,-323"/>
<text text-anchor="middle" x="330" y="-300.8" font-family="Times,serif" font-size="14.00" fill="#000000">AppComponent </text>
</g>
<!-- AppModule&#45;&gt;AppComponent  -->
<g id="edge5" class="edge">
<title>AppModule&#45;&gt;AppComponent </title>
<path fill="none" stroke="#000000" stroke-dasharray="1,5" d="M329,-255.2228C329,-255.2228 329,-276.7269 329,-276.7269"/>
<polygon fill="#000000" stroke="#000000" points="325.5001,-276.7269 329,-286.7269 332.5001,-276.727 325.5001,-276.7269"/>
</g>
</g>
</svg>
