<?xml version="1.0" encoding="UTF-8" standalone="no"?>
<!DOCTYPE svg PUBLIC "-//W3C//DTD SVG 1.1//EN"
 "http://www.w3.org/Graphics/SVG/1.1/DTD/svg11.dtd">
<!-- Generated by graphviz version 2.47.3 (20210619.1520)
 -->
<!-- Title: dependencies Pages: 1 -->
<svg width="328pt" height="318pt"
 viewBox="0.00 0.00 328.00 317.80" xmlns="http://www.w3.org/2000/svg" xmlns:xlink="http://www.w3.org/1999/xlink">
<g id="graph0" class="graph" transform="scale(1 1) rotate(0) translate(4 313.8)">
<title>dependencies</title>
<polygon fill="white" stroke="transparent" points="-4,4 -4,-313.8 324,-313.8 324,4 -4,4"/>
<text text-anchor="middle" x="160" y="-8.2" font-family="sans-serif" font-size="14.00">dependencies</text>
<g id="clust1" class="cluster">
<title>cluster_AgmDirectionModule</title>
<polygon fill="none" stroke="black" stroke-dasharray="1,5" points="8,-32.8 8,-233.8 164,-233.8 164,-32.8 8,-32.8"/>
</g>
<g id="clust2" class="cluster">
<title>cluster_AgmDirectionModule_declarations</title>
<polygon fill="none" stroke="black" points="30,-40.8 30,-92.8 142,-92.8 142,-40.8 30,-40.8"/>
</g>
<g id="clust5" class="cluster">
<title>cluster_AgmDirectionModule_exports</title>
<polygon fill="none" stroke="black" points="28,-173.8 28,-225.8 144,-225.8 144,-173.8 28,-173.8"/>
</g>
<g id="clust8" class="cluster">
<title>cluster_AppModule</title>
<polygon fill="none" stroke="black" stroke-dasharray="1,5" points="172,-100.8 172,-301.8 312,-301.8 312,-100.8 172,-100.8"/>
</g>
<g id="clust9" class="cluster">
<title>cluster_AppModule_declarations</title>
<polygon fill="none" stroke="black" points="180,-108.8 180,-160.8 302,-160.8 302,-108.8 180,-108.8"/>
</g>
<g id="clust13" class="cluster">
<title>cluster_AppModule_bootstrap</title>
<polygon fill="none" stroke="black" points="180,-241.8 180,-293.8 304,-293.8 304,-241.8 180,-241.8"/>
</g>
<!-- AgmDirection -->
<g id="node1" class="node">
<title>AgmDirection</title>
<polygon fill="#ffffb3" stroke="black" points="134.37,-84.8 37.63,-84.8 37.63,-48.8 134.37,-48.8 134.37,-84.8"/>
<text text-anchor="middle" x="86" y="-62.6" font-family="Times,serif" font-size="14.00">AgmDirection</text>
</g>
<!-- AgmDirectionModule -->
<g id="node2" class="node">
<title>AgmDirectionModule</title>
<polygon fill="#8dd3c7" stroke="black" points="156.42,-152.8 153.42,-156.8 132.42,-156.8 129.42,-152.8 15.58,-152.8 15.58,-116.8 156.42,-116.8 156.42,-152.8"/>
<text text-anchor="middle" x="86" y="-130.6" font-family="Times,serif" font-size="14.00">AgmDirectionModule</text>
</g>
<!-- AgmDirection&#45;&gt;AgmDirectionModule -->
<g id="edge1" class="edge">
<title>AgmDirection&#45;&gt;AgmDirectionModule</title>
<path fill="none" stroke="black" d="M86,-85.02C86,-85.02 86,-106.53 86,-106.53"/>
<polygon fill="black" stroke="black" points="82.5,-106.53 86,-116.53 89.5,-106.53 82.5,-106.53"/>
</g>
<!-- AgmDirection  -->
<g id="node3" class="node">
<title>AgmDirection </title>
<polygon fill="#fb8072" stroke="black" points="136.37,-217.8 35.63,-217.8 35.63,-181.8 136.37,-181.8 136.37,-217.8"/>
<text text-anchor="middle" x="86" y="-195.6" font-family="Times,serif" font-size="14.00">AgmDirection </text>
</g>
<!-- AgmDirectionModule&#45;&gt;AgmDirection  -->
<g id="edge2" class="edge">
<title>AgmDirectionModule&#45;&gt;AgmDirection </title>
<path fill="none" stroke="black" stroke-dasharray="5,2" d="M86,-152.91C86,-152.91 86,-171.79 86,-171.79"/>
<polygon fill="black" stroke="black" points="82.5,-171.79 86,-181.79 89.5,-171.79 82.5,-171.79"/>
</g>
<!-- AppModule -->
<g id="node5" class="node">
<title>AppModule</title>
<polygon fill="#8dd3c7" stroke="black" points="282.66,-217.8 279.66,-221.8 258.66,-221.8 255.66,-217.8 199.34,-217.8 199.34,-181.8 282.66,-181.8 282.66,-217.8"/>
<text text-anchor="middle" x="241" y="-195.6" font-family="Times,serif" font-size="14.00">AppModule</text>
</g>
<!-- AgmDirectionModule&#45;&gt;AppModule -->
<g id="edge4" class="edge">
<title>AgmDirectionModule&#45;&gt;AppModule</title>
<path fill="none" stroke="black" d="M146.2,-152.91C146.2,-172.14 146.2,-199.8 146.2,-199.8 146.2,-199.8 189.14,-199.8 189.14,-199.8"/>
<polygon fill="black" stroke="black" points="189.14,-203.3 199.14,-199.8 189.14,-196.3 189.14,-203.3"/>
</g>
<!-- AppComponent -->
<g id="node4" class="node">
<title>AppComponent</title>
<polygon fill="#ffffb3" stroke="black" points="293.94,-152.8 188.06,-152.8 188.06,-116.8 293.94,-116.8 293.94,-152.8"/>
<text text-anchor="middle" x="241" y="-130.6" font-family="Times,serif" font-size="14.00">AppComponent</text>
</g>
<!-- AppComponent&#45;&gt;AppModule -->
<g id="edge3" class="edge">
<title>AppComponent&#45;&gt;AppModule</title>
<path fill="none" stroke="black" d="M241,-152.91C241,-152.91 241,-171.79 241,-171.79"/>
<polygon fill="black" stroke="black" points="237.5,-171.79 241,-181.79 244.5,-171.79 237.5,-171.79"/>
</g>
<!-- AppComponent  -->
<g id="node6" class="node">
<title>AppComponent </title>
<polygon fill="#80b1d3" stroke="black" points="296.44,-285.8 187.56,-285.8 187.56,-249.8 296.44,-249.8 296.44,-285.8"/>
<text text-anchor="middle" x="242" y="-263.6" font-family="Times,serif" font-size="14.00">AppComponent </text>
</g>
<!-- AppModule&#45;&gt;AppComponent  -->
<g id="edge5" class="edge">
<title>AppModule&#45;&gt;AppComponent </title>
<path fill="none" stroke="black" stroke-dasharray="1,5" d="M241,-218.02C241,-218.02 241,-239.53 241,-239.53"/>
<polygon fill="black" stroke="black" points="237.5,-239.53 241,-249.53 244.5,-239.53 237.5,-239.53"/>
</g>
</g>
</svg>
