<?xml version="1.0" encoding="UTF-8" standalone="no"?>
<!DOCTYPE svg PUBLIC "-//W3C//DTD SVG 1.1//EN"
 "http://www.w3.org/Graphics/SVG/1.1/DTD/svg11.dtd">
<!-- Generated by graphviz version 2.47.3 (20210619.1520)
 -->
<!-- Title: dependencies Pages: 1 -->
<svg width="180pt" height="247pt"
 viewBox="0.00 0.00 180.00 246.80" xmlns="http://www.w3.org/2000/svg" xmlns:xlink="http://www.w3.org/1999/xlink">
<g id="graph0" class="graph" transform="scale(1 1) rotate(0) translate(4 242.8)">
<title>dependencies</title>
<polygon fill="white" stroke="transparent" points="-4,4 -4,-242.8 176,-242.8 176,4 -4,4"/>
<text text-anchor="middle" x="86" y="-8.2" font-family="sans-serif" font-size="14.00">dependencies</text>
<g id="clust1" class="cluster">
<title>cluster_AgmDirectionModule</title>
<polygon fill="none" stroke="black" stroke-dasharray="1,5" points="8,-32.8 8,-230.8 164,-230.8 164,-32.8 8,-32.8"/>
</g>
<g id="clust2" class="cluster">
<title>cluster_AgmDirectionModule_declarations</title>
<polygon fill="none" stroke="black" points="30,-40.8 30,-92.8 142,-92.8 142,-40.8 30,-40.8"/>
</g>
<g id="clust5" class="cluster">
<title>cluster_AgmDirectionModule_exports</title>
<polygon fill="none" stroke="black" points="28,-170.8 28,-222.8 144,-222.8 144,-170.8 28,-170.8"/>
</g>
<!-- AgmDirection -->
<g id="node1" class="node">
<title>AgmDirection</title>
<polygon fill="#ffffb3" stroke="black" points="134.37,-84.8 37.63,-84.8 37.63,-48.8 134.37,-48.8 134.37,-84.8"/>
<text text-anchor="middle" x="86" y="-62.6" font-family="Times,serif" font-size="14.00">AgmDirection</text>
</g>
<!-- AgmDirectionModule -->
<g id="node2" class="node">
<title>AgmDirectionModule</title>
<polygon fill="#8dd3c7" stroke="black" points="156.42,-149.8 153.42,-153.8 132.42,-153.8 129.42,-149.8 15.58,-149.8 15.58,-113.8 156.42,-113.8 156.42,-149.8"/>
<text text-anchor="middle" x="86" y="-127.6" font-family="Times,serif" font-size="14.00">AgmDirectionModule</text>
</g>
<!-- AgmDirection&#45;&gt;AgmDirectionModule -->
<g id="edge1" class="edge">
<title>AgmDirection&#45;&gt;AgmDirectionModule</title>
<path fill="none" stroke="black" d="M86,-84.91C86,-84.91 86,-103.79 86,-103.79"/>
<polygon fill="black" stroke="black" points="82.5,-103.79 86,-113.79 89.5,-103.79 82.5,-103.79"/>
</g>
<!-- AgmDirection  -->
<g id="node3" class="node">
<title>AgmDirection </title>
<polygon fill="#fb8072" stroke="black" points="136.37,-214.8 35.63,-214.8 35.63,-178.8 136.37,-178.8 136.37,-214.8"/>
<text text-anchor="middle" x="86" y="-192.6" font-family="Times,serif" font-size="14.00">AgmDirection </text>
</g>
<!-- AgmDirectionModule&#45;&gt;AgmDirection  -->
<g id="edge2" class="edge">
<title>AgmDirectionModule&#45;&gt;AgmDirection </title>
<path fill="none" stroke="black" stroke-dasharray="5,2" d="M86,-149.91C86,-149.91 86,-168.79 86,-168.79"/>
<polygon fill="black" stroke="black" points="82.5,-168.79 86,-178.79 89.5,-168.79 82.5,-168.79"/>
</g>
</g>
</svg>
