<?xml version="1.0" encoding="UTF-8" standalone="no"?>
<!DOCTYPE svg PUBLIC "-//W3C//DTD SVG 1.1//EN"
 "http://www.w3.org/Graphics/SVG/1.1/DTD/svg11.dtd">
<!-- Generated by graphviz version 2.40.1 (20161225.0304)
 -->
<!-- Title: dependencies Pages: 1 -->
<svg width="504pt" height="284pt"
 viewBox="0.00 0.00 504.00 284.00" xmlns="http://www.w3.org/2000/svg" xmlns:xlink="http://www.w3.org/1999/xlink">
<g id="graph0" class="graph" transform="scale(1 1) rotate(0) translate(4 280)">
<title>dependencies</title>
<polygon fill="#ffffff" stroke="transparent" points="-4,4 -4,-280 500,-280 500,4 -4,4"/>
<text text-anchor="start" x="227.0091" y="-42.4" font-family="sans-serif" font-weight="bold" font-size="14.00" fill="#000000">Legend</text>
<polygon fill="#ffffb3" stroke="transparent" points="14,-10 14,-30 34,-30 34,-10 14,-10"/>
<text text-anchor="start" x="37.629" y="-15.4" font-family="sans-serif" font-size="14.00" fill="#000000"> &#160;Declarations</text>
<polygon fill="#8dd3c7" stroke="transparent" points="127,-10 127,-30 147,-30 147,-10 127,-10"/>
<text text-anchor="start" x="150.7251" y="-15.4" font-family="sans-serif" font-size="14.00" fill="#000000"> &#160;Module</text>
<polygon fill="#80b1d3" stroke="transparent" points="213,-10 213,-30 233,-30 233,-10 213,-10"/>
<text text-anchor="start" x="236.7812" y="-15.4" font-family="sans-serif" font-size="14.00" fill="#000000"> &#160;Bootstrap</text>
<polygon fill="#fdb462" stroke="transparent" points="310,-10 310,-30 330,-30 330,-10 310,-10"/>
<text text-anchor="start" x="333.6732" y="-15.4" font-family="sans-serif" font-size="14.00" fill="#000000"> &#160;Providers</text>
<polygon fill="#fb8072" stroke="transparent" points="406,-10 406,-30 426,-30 426,-10 406,-10"/>
<text text-anchor="start" x="429.7258" y="-15.4" font-family="sans-serif" font-size="14.00" fill="#000000"> &#160;Exports</text>
<g id="clust1" class="cluster">
<title>cluster_AppModule</title>
<polygon fill="none" stroke="#000000" stroke-dasharray="1,5" points="97,-70 97,-268 399,-268 399,-70 97,-70"/>
</g>
<g id="clust2" class="cluster">
<title>cluster_AppModule_declarations</title>
<polygon fill="none" stroke="#000000" points="269,-78 269,-130 391,-130 391,-78 269,-78"/>
</g>
<g id="clust4" class="cluster">
<title>cluster_AppModule_imports</title>
<polygon fill="none" stroke="#000000" points="105,-78 105,-130 261,-130 261,-78 105,-78"/>
</g>
<g id="clust6" class="cluster">
<title>cluster_AppModule_bootstrap</title>
<polygon fill="none" stroke="#000000" points="194,-208 194,-260 318,-260 318,-208 194,-208"/>
</g>
<!-- AppComponent -->
<g id="node1" class="node">
<title>AppComponent</title>
<polygon fill="#ffffb3" stroke="#000000" points="382.9399,-122 277.0601,-122 277.0601,-86 382.9399,-86 382.9399,-122"/>
<text text-anchor="middle" x="330" y="-99.8" font-family="Times,serif" font-size="14.00" fill="#000000">AppComponent</text>
</g>
<!-- AppModule -->
<g id="node2" class="node">
<title>AppModule</title>
<polygon fill="#8dd3c7" stroke="#000000" points="297.6571,-187 294.6571,-191 273.6571,-191 270.6571,-187 214.3429,-187 214.3429,-151 297.6571,-151 297.6571,-187"/>
<text text-anchor="middle" x="256" y="-164.8" font-family="Times,serif" font-size="14.00" fill="#000000">AppModule</text>
</g>
<!-- AppComponent&#45;&gt;AppModule -->
<g id="edge1" class="edge">
<title>AppComponent&#45;&gt;AppModule</title>
<path fill="none" stroke="#000000" d="M287.5544,-122.1061C287.5544,-122.1061 287.5544,-140.991 287.5544,-140.991"/>
<polygon fill="#000000" stroke="#000000" points="284.0544,-140.9909 287.5544,-150.991 291.0544,-140.991 284.0544,-140.9909"/>
</g>
<!-- AppComponent  -->
<g id="node4" class="node">
<title>AppComponent </title>
<polygon fill="#80b1d3" stroke="#000000" points="310.439,-252 201.561,-252 201.561,-216 310.439,-216 310.439,-252"/>
<text text-anchor="middle" x="256" y="-229.8" font-family="Times,serif" font-size="14.00" fill="#000000">AppComponent </text>
</g>
<!-- AppModule&#45;&gt;AppComponent  -->
<g id="edge3" class="edge">
<title>AppModule&#45;&gt;AppComponent </title>
<path fill="none" stroke="#000000" stroke-dasharray="1,5" d="M256,-187.1061C256,-187.1061 256,-205.991 256,-205.991"/>
<polygon fill="#000000" stroke="#000000" points="252.5001,-205.9909 256,-215.991 259.5001,-205.991 252.5001,-205.9909"/>
</g>
<!-- AgmDirectionModule -->
<g id="node3" class="node">
<title>AgmDirectionModule</title>
<polygon fill="#8dd3c7" stroke="#000000" points="253.4158,-122 250.4158,-126 229.4158,-126 226.4158,-122 112.5842,-122 112.5842,-86 253.4158,-86 253.4158,-122"/>
<text text-anchor="middle" x="183" y="-99.8" font-family="Times,serif" font-size="14.00" fill="#000000">AgmDirectionModule</text>
</g>
<!-- AgmDirectionModule&#45;&gt;AppModule -->
<g id="edge2" class="edge">
<title>AgmDirectionModule&#45;&gt;AppModule</title>
<path fill="none" stroke="#000000" d="M233.6897,-122.1061C233.6897,-122.1061 233.6897,-140.991 233.6897,-140.991"/>
<polygon fill="#000000" stroke="#000000" points="230.1898,-140.9909 233.6897,-150.991 237.1898,-140.991 230.1898,-140.9909"/>
</g>
</g>
</svg>
