<?xml version="1.0" encoding="UTF-8" standalone="no"?>
<!DOCTYPE svg PUBLIC "-//W3C//DTD SVG 1.1//EN"
 "http://www.w3.org/Graphics/SVG/1.1/DTD/svg11.dtd">
<!-- Generated by graphviz version 2.47.3 (20210619.1520)
 -->
<!-- Title: dependencies Pages: 1 -->
<svg width="326pt" height="247pt"
 viewBox="0.00 0.00 326.00 246.80" xmlns="http://www.w3.org/2000/svg" xmlns:xlink="http://www.w3.org/1999/xlink">
<g id="graph0" class="graph" transform="scale(1 1) rotate(0) translate(4 242.8)">
<title>dependencies</title>
<polygon fill="white" stroke="transparent" points="-4,4 -4,-242.8 322,-242.8 322,4 -4,4"/>
<text text-anchor="middle" x="159" y="-8.2" font-family="sans-serif" font-size="14.00">dependencies</text>
<g id="clust1" class="cluster">
<title>cluster_AppModule</title>
<polygon fill="none" stroke="black" stroke-dasharray="1,5" points="8,-32.8 8,-230.8 310,-230.8 310,-32.8 8,-32.8"/>
</g>
<g id="clust2" class="cluster">
<title>cluster_AppModule_declarations</title>
<polygon fill="none" stroke="black" points="180,-40.8 180,-92.8 302,-92.8 302,-40.8 180,-40.8"/>
</g>
<g id="clust6" class="cluster">
<title>cluster_AppModule_bootstrap</title>
<polygon fill="none" stroke="black" points="105,-170.8 105,-222.8 229,-222.8 229,-170.8 105,-170.8"/>
</g>
<g id="clust4" class="cluster">
<title>cluster_AppModule_imports</title>
<polygon fill="none" stroke="black" points="16,-40.8 16,-92.8 172,-92.8 172,-40.8 16,-40.8"/>
</g>
<!-- AppComponent -->
<g id="node1" class="node">
<title>AppComponent</title>
<polygon fill="#ffffb3" stroke="black" points="293.94,-84.8 188.06,-84.8 188.06,-48.8 293.94,-48.8 293.94,-84.8"/>
<text text-anchor="middle" x="241" y="-62.6" font-family="Times,serif" font-size="14.00">AppComponent</text>
</g>
<!-- AppModule -->
<g id="node2" class="node">
<title>AppModule</title>
<polygon fill="#8dd3c7" stroke="black" points="208.66,-149.8 205.66,-153.8 184.66,-153.8 181.66,-149.8 125.34,-149.8 125.34,-113.8 208.66,-113.8 208.66,-149.8"/>
<text text-anchor="middle" x="167" y="-127.6" font-family="Times,serif" font-size="14.00">AppModule</text>
</g>
<!-- AppComponent&#45;&gt;AppModule -->
<g id="edge1" class="edge">
<title>AppComponent&#45;&gt;AppModule</title>
<path fill="none" stroke="black" d="M198.55,-84.91C198.55,-84.91 198.55,-103.79 198.55,-103.79"/>
<polygon fill="black" stroke="black" points="195.05,-103.79 198.55,-113.79 202.05,-103.79 195.05,-103.79"/>
</g>
<!-- AppComponent  -->
<g id="node4" class="node">
<title>AppComponent </title>
<polygon fill="#80b1d3" stroke="black" points="221.44,-214.8 112.56,-214.8 112.56,-178.8 221.44,-178.8 221.44,-214.8"/>
<text text-anchor="middle" x="167" y="-192.6" font-family="Times,serif" font-size="14.00">AppComponent </text>
</g>
<!-- AppModule&#45;&gt;AppComponent  -->
<g id="edge3" class="edge">
<title>AppModule&#45;&gt;AppComponent </title>
<path fill="none" stroke="black" stroke-dasharray="1,5" d="M167,-149.91C167,-149.91 167,-168.79 167,-168.79"/>
<polygon fill="black" stroke="black" points="163.5,-168.79 167,-178.79 170.5,-168.79 163.5,-168.79"/>
</g>
<!-- AgmDirectionModule -->
<g id="node3" class="node">
<title>AgmDirectionModule</title>
<polygon fill="#8dd3c7" stroke="black" points="164.42,-84.8 161.42,-88.8 140.42,-88.8 137.42,-84.8 23.58,-84.8 23.58,-48.8 164.42,-48.8 164.42,-84.8"/>
<text text-anchor="middle" x="94" y="-62.6" font-family="Times,serif" font-size="14.00">AgmDirectionModule</text>
</g>
<!-- AgmDirectionModule&#45;&gt;AppModule -->
<g id="edge2" class="edge">
<title>AgmDirectionModule&#45;&gt;AppModule</title>
<path fill="none" stroke="black" d="M144.69,-84.91C144.69,-84.91 144.69,-103.79 144.69,-103.79"/>
<polygon fill="black" stroke="black" points="141.19,-103.79 144.69,-113.79 148.19,-103.79 141.19,-103.79"/>
</g>
</g>
</svg>
